<svg width="120" height="35" viewBox="0 0 120 35" fill="none" xmlns="http://www.w3.org/2000/svg">
<path d="M0 22.3341L4.61456 18.7255C5.92264 20.9632 7.99355 22.2621 10.3546 22.2621C12.9358 22.2621 14.3164 20.6031 14.3164 18.7975C14.3164 16.6319 11.6626 15.9464 8.8289 15.0823C5.26726 13.9995 1.30808 12.6286 1.30808 7.57715C1.30808 3.35518 5.01477 0 10.1397 0C14.4641 0 16.9353 1.62425 19.0787 3.82458L14.8993 6.96373C13.8088 5.33948 12.2455 4.47268 10.1746 4.47268C7.81359 4.47268 6.54042 5.73421 6.54042 7.39579C6.54042 9.41743 9.08407 10.1029 11.9178 11.039C15.5144 12.1939 19.5864 13.7808 19.5864 18.8322C19.5864 23.0168 16.2423 27.0601 10.3922 27.0601C5.59495 27.0601 2.3986 25.0385 0 22.3341Z" fill="#37B4AF"/>
<path d="M20.9268 0.360352H25.869V10.6446C27.067 9.2017 28.8129 8.30023 30.8838 8.30023C35.1706 8.30023 37.7519 11.042 37.7519 15.696V26.7004H32.7022V16.3815C32.7022 13.9278 31.5768 12.5195 29.3581 12.5195C27.4699 12.5195 25.9066 13.8184 25.9066 16.8482V26.6977H20.9294V0.360352H20.9268Z" fill="#37B4AF"/>
<path d="M39.0166 17.6799C39.0166 12.4844 43.196 8.2998 48.4284 8.2998C53.6607 8.2998 57.8401 12.4844 57.8401 17.6799C57.8401 22.8754 53.6607 27.06 48.4284 27.06C43.196 27.06 39.0166 22.8754 39.0166 17.6799ZM53.008 17.6799C53.008 15.1168 50.972 12.9885 48.4284 12.9885C45.8847 12.9885 43.8863 15.1168 43.8863 17.6799C43.8863 20.243 45.8498 22.3713 48.4284 22.3713C51.0069 22.3713 53.008 20.243 53.008 17.6799Z" fill="#37B4AF"/>
<path d="M64.0856 24.9317V34.9999H59.1084V8.65986H64.0856V10.7162C65.2486 9.30796 67.102 8.2998 69.5355 8.2998C73.6424 8.2998 78.3295 11.2949 78.3295 17.6799C78.3295 24.0649 73.4597 27.06 69.608 27.06C67.2094 27.06 65.2486 26.2652 64.0856 24.9317ZM73.4597 17.6426C73.4597 14.8635 71.3512 12.8072 68.59 12.8072C65.8288 12.8072 63.9378 14.9728 63.9378 17.6426C63.9378 20.3123 65.9013 22.5126 68.59 22.5126C71.2787 22.5126 73.4597 20.419 73.4597 17.6426Z" fill="#37B4AF"/>
<path d="M79.6345 17.571V0.360352H84.6842V17.8964C84.6842 20.4221 86.6101 22.4064 89.1537 22.4064C91.6974 22.4064 93.7334 20.4221 93.7334 17.8964V0.360352H98.7831V17.571C98.7831 23.8493 94.7138 27.0604 89.1886 27.0604C83.6635 27.0604 79.6318 23.8493 79.6318 17.571H79.6345Z" fill="#FFD915"/>
<path d="M105.756 24.9317V34.9999H100.779V8.65986H105.756V10.7162C106.92 9.30796 108.773 8.2998 111.206 8.2998C115.313 8.2998 120 11.2949 120 17.6799C120 24.0649 115.131 27.06 111.279 27.06C108.88 27.06 106.92 26.2652 105.756 24.9317ZM115.131 17.6426C115.131 14.8635 113.022 12.8072 110.261 12.8072C107.5 12.8072 105.609 14.9728 105.609 17.6426C105.609 20.3123 107.572 22.5126 110.261 22.5126C112.95 22.5126 115.131 20.419 115.131 17.6426Z" fill="#FFD915"/>
</svg>
