<svg width="110" height="28" viewBox="0 0 110 28" fill="none" xmlns="http://www.w3.org/2000/svg">
<g clip-path="url(#clip0_586_11315)">
<path d="M90.5266 27.9419H80.6582L88.2898 14.3893L80.6582 0.705078H90.5266L98.0266 14.3893L90.5266 27.9419Z" fill="white"/>
<path d="M101.448 14.3893L97.1055 6.36297L100.263 0.705078H110L102.5 14.3893L110 27.9419H100.263L97.1055 22.284L101.448 14.3893Z" fill="white"/>
<path d="M11.7105 0.705078C19.6053 0.705078 23.9474 4.38929 23.9474 10.9682C23.9474 15.0472 22.3684 17.9419 19.4737 19.5209L24.8684 26.8893V27.8103H15.9211L10.9211 20.9682H8.28947V27.8103H0V0.705078H11.7105ZM12.2368 14.5209C14.4737 14.5209 15.7895 13.2051 15.7895 11.0998C15.7895 8.99455 14.3421 7.81034 11.8421 7.81034H8.28947V14.6524H12.2368V14.5209Z" fill="white"/>
<path d="M27.2373 27.9419V0.705078H47.8952V7.67876H35.5268V11.0998H46.0531V17.6788H35.5268V20.9682H48.2899V27.9419H27.2373Z" fill="white"/>
<path d="M62.237 0.705078C71.9738 0.705078 77.5002 5.5735 77.5002 14.3893C77.5002 23.0735 71.9738 28.0735 62.237 28.0735H51.5791V0.705078H62.237ZM62.237 20.8367C66.5791 20.8367 69.0791 18.4682 69.0791 14.2577C69.0791 10.0472 66.5791 7.67876 62.237 7.67876H60.0002V20.7051H62.237V20.8367Z" fill="white"/>
</g>
<defs>
<clipPath id="clip0_586_11315">
<rect width="110" height="27.2368" fill="white" transform="translate(0 0.705078)"/>
</clipPath>
</defs>
</svg>
