<svg width="145" height="43" viewBox="0 0 145 43" fill="none" xmlns="http://www.w3.org/2000/svg">
<g clip-path="url(#clip0_586_11309)">
<path d="M21.5308 27.5903L20.3584 28.7512C19.7126 29.3907 19.7126 30.431 20.3584 31.0729C21.0042 31.7124 22.0549 31.7124 22.7032 31.0729C23.349 30.4335 23.349 29.3931 22.7032 28.7512L21.5308 27.5903Z" fill="white"/>
<path d="M15.5869 19.2131L21.5309 23.1188L27.4748 19.2131L21.5309 13.3276L15.5869 19.2131Z" fill="white"/>
<path d="M21.5354 0C9.64249 0 0 9.54763 0 21.3235C0 33.0994 9.64249 42.6471 21.5354 42.6471C33.4283 42.6471 43.0708 33.0994 43.0708 21.3235C43.0708 9.54763 33.4283 0 21.5354 0ZM32.313 24.0019L29.9484 21.6605L24.2031 25.4358L25.1271 26.3507C27.1093 28.3133 27.1093 31.5057 25.1271 33.4684C23.145 35.431 19.9209 35.431 17.9387 33.4684C15.9566 31.5057 15.9566 28.3133 17.9387 26.3507L18.8627 25.4358L13.1175 21.6605L10.7627 23.992L8.34093 21.5941L21.5354 8.52941L34.7398 21.6039L32.318 24.0019H32.313Z" fill="white"/>
<path d="M124.031 8.88135H58.6644V8.89364C57.4821 8.9207 56.4314 9.15681 55.5173 9.61427C54.5437 10.1012 53.7538 10.7653 53.1477 11.6064C52.5416 12.4476 52.0548 13.4879 51.6872 14.7299C51.3196 15.972 51.0637 17.2829 50.9246 18.6577C50.783 20.035 50.7234 21.5746 50.7458 23.279C50.788 26.5427 51.4065 29.108 52.5963 30.9698C53.7861 32.834 55.4726 33.7662 57.6585 33.7662C58.0907 33.7662 58.4806 33.7293 58.8259 33.6555V29.2334C58.6744 29.258 58.426 29.2703 58.0807 29.2703C56.111 29.2703 55.1274 27.2732 55.1274 23.2766C55.1274 22.0591 55.1448 21.0409 55.1771 20.2244C55.2093 19.4078 55.3013 18.5003 55.4528 17.5018C55.6043 16.5032 55.8104 15.7064 56.0688 15.1087C56.3296 14.5135 56.7071 14.0069 57.2039 13.5937C57.7007 13.1805 58.3068 12.9714 59.0221 12.9714H60.6441V16.8082C61.9432 16.8082 62.9541 17.0886 63.6794 17.6493C64.4047 18.2101 64.8866 19.1348 65.1226 20.4261C63.8459 20.8884 62.8349 21.6632 62.0873 22.7453C61.3421 23.83 60.967 25.1753 60.967 26.7838C60.967 28.9038 61.5458 30.5344 62.7033 31.6806C63.8608 32.8267 65.3387 33.3973 67.1345 33.3973C67.9791 33.3973 68.7019 33.3235 69.3079 33.1784V28.9751C68.8757 29.0243 68.4634 29.0489 68.0735 29.0489C67.3606 29.0489 66.7694 28.8669 66.3049 28.5005C65.8404 28.134 65.6069 27.5757 65.6069 26.8207C65.6069 26.0656 65.8603 25.4753 66.3695 25.0474C66.8762 24.6219 67.5866 24.4079 68.4957 24.4079C69.9438 24.4079 71.0765 24.9441 71.8862 26.0164C72.6985 27.0887 73.1033 28.5128 73.1033 30.291V33.3973H77.6464V12.9739H80.4706C81.1636 12.9739 81.6231 13.1141 81.8491 13.3945C82.0752 13.6748 82.1894 14.2897 82.1894 15.2391V33.3997H86.7325V12.9739H99.8773V14.9095C98.0814 15.2981 96.4371 15.9867 94.9442 16.973C93.4514 17.9592 91.817 19.2554 90.0435 20.8638V25.7606L99.845 33.3973L99.8773 33.3604V33.3973H104.259V19.366C105.665 19.4644 106.753 19.9022 107.52 20.6818C108.288 21.4615 108.673 22.4477 108.673 23.6406C108.673 25.4188 107.96 26.3066 106.532 26.3066H106.206V30.9107C106.358 30.9353 106.584 30.9476 106.887 30.9476C108.812 30.9476 110.322 30.3033 111.415 29.012C112.508 27.7208 113.054 25.9303 113.054 23.6406C113.054 21.0335 112.168 18.9455 110.394 17.3739C108.621 15.8023 106.574 14.9808 104.259 14.907V12.9714H114.547C115.24 12.9714 115.7 13.1116 115.926 13.392C116.152 13.6724 116.266 14.2872 116.266 15.2366V33.3973H120.809V12.9739H124.249V16.8107C125.548 16.8107 126.559 17.091 127.285 17.6518C128.01 18.2125 128.492 19.1373 128.728 20.4285C127.451 20.8909 126.44 21.6656 125.692 22.7478C124.947 23.8324 124.572 25.1777 124.572 26.7862C124.572 28.9063 125.151 30.5369 126.308 31.683C127.466 32.8291 128.944 33.3997 130.74 33.3997C131.584 33.3997 132.307 33.3259 132.913 33.1808V28.9776C132.481 29.0268 132.069 29.0514 131.679 29.0514C130.966 29.0514 130.375 28.8694 129.91 28.5029C129.446 28.1365 129.212 27.5782 129.212 26.8231C129.212 26.0681 129.465 25.4778 129.975 25.0498C130.481 24.6244 131.192 24.4104 132.101 24.4104C133.549 24.4104 134.682 24.9466 135.491 26.0189C136.304 27.0912 136.709 28.5152 136.709 30.2934V33.3997H141.252V12.9739H144.985V8.88135H124.013H124.031ZM99.8872 28.0651L94.0774 23.3528C96.0695 21.5008 98.0044 20.2219 99.8872 19.5161V28.0651ZM73.1108 22.8413C72.3309 21.3311 71.0988 20.4162 69.4098 20.1014C69.1937 18.4929 68.6895 17.0689 67.8996 15.8269C67.1097 14.5848 66.0665 13.6355 64.7674 12.9764H73.1083V22.8413H73.1108ZM136.726 22.8413C135.946 21.3311 134.714 20.4162 133.025 20.1014C132.809 18.4929 132.305 17.0689 131.515 15.8269C130.725 14.5848 129.682 13.6355 128.382 12.9764H136.723V22.8413H136.726Z" fill="white"/>
</g>
<defs>
<clipPath id="clip0_586_11309">
<rect width="145" height="42.6471" fill="white"/>
</clipPath>
</defs>
</svg>
