<svg width="118" height="39" viewBox="0 0 118 39" fill="none" xmlns="http://www.w3.org/2000/svg">
<g clip-path="url(#clip0_586_11325)">
<path d="M6.9612 15.689C10.8058 15.689 13.9224 12.6564 13.9224 8.91552C13.9224 5.17466 10.8058 2.14209 6.9612 2.14209C3.11663 2.14209 0 5.17466 0 8.91552C0 12.6564 3.11663 15.689 6.9612 15.689Z" fill="white"/>
<path d="M6.9612 32.7217C10.8058 32.7217 13.9224 29.6891 13.9224 25.9482C13.9224 22.2074 10.8058 19.1748 6.9612 19.1748C3.11663 19.1748 0 22.2074 0 25.9482C0 29.6891 3.11663 32.7217 6.9612 32.7217Z" fill="white"/>
<path d="M24.4817 32.7217C28.3263 32.7217 31.4429 29.6891 31.4429 25.9482C31.4429 22.2074 28.3263 19.1748 24.4817 19.1748C20.6371 19.1748 17.5205 22.2074 17.5205 25.9482C17.5205 29.6891 20.6371 32.7217 24.4817 32.7217Z" fill="white"/>
<path d="M23.8451 15.621L17.5347 17.2816C17.3422 16.8325 17.1778 16.3657 17.0433 15.8827C16.9919 15.6969 16.9454 15.5111 16.9039 15.3237C15.6205 9.55995 19.1966 3.76707 25.1135 2.21143L31.4256 0.550781C31.6182 0.999866 31.7825 1.46672 31.917 1.94973C31.9685 2.1355 32.015 2.32289 32.0565 2.50866C33.3398 8.27246 29.7637 14.0653 23.8468 15.621H23.8451Z" fill="white"/>
<path d="M72.2818 5.11426H39.5029V8.60194H64.3228V22.5123C63.4927 21.3379 62.148 20.7499 60.2869 20.7499C60.6389 19.674 60.8148 18.5836 60.8148 17.4835C60.8148 15.4529 60.174 13.7519 58.8907 12.382C57.6074 11.0121 55.8974 10.3272 53.7607 10.3272C51.8996 10.3272 50.4154 10.8538 49.3097 11.9055C48.4182 12.7536 47.8869 13.8149 47.7143 15.0894C47.6644 15.3382 47.6362 15.5951 47.6362 15.86C47.6362 15.9828 47.6429 16.1039 47.6545 16.2235C47.6678 16.4658 47.7126 16.7 47.7856 16.9213C48.2638 18.5997 49.8426 19.8339 51.7203 19.8339C53.9748 19.8339 55.8044 18.0553 55.8044 15.86C55.8044 15.3689 55.7114 14.8988 55.5437 14.4643C55.6433 14.5709 55.7346 14.6904 55.8177 14.8245C56.2327 15.4981 56.4402 16.3608 56.4402 17.4124C56.4402 19.1506 55.9306 20.5754 54.9129 21.6884C53.8935 22.8014 52.4159 23.3587 50.4801 23.3587C48.4182 23.3587 46.7762 22.7045 45.5577 21.3944C44.3374 20.0859 43.7281 18.1959 43.7281 15.7243C43.7281 14.4756 43.8161 13.2899 43.9921 12.1639H39.7304C39.5793 13.2899 39.5046 14.4643 39.5046 15.6871C39.5046 19.3331 40.5173 22.1407 42.5411 24.1099C44.5649 26.0791 47.2494 27.0645 50.5947 27.0645C53.7125 27.0645 56.2144 26.1227 58.1021 24.2391H59.8752C62.8419 24.2391 64.3013 26.0387 64.3013 29.2922L68.475 29.3406C68.5995 29.3406 68.7008 29.2421 68.7008 29.1209V8.60194H72.2835V5.11426H72.2818Z" fill="white"/>
<path d="M101.386 25.6836C100.475 25.6836 99.7027 26.0002 99.0685 26.6335C98.4343 27.2667 98.1172 28.0276 98.1172 28.9128C98.1172 29.7981 98.4343 30.5508 99.0685 31.1679C99.7027 31.785 100.475 32.0936 101.386 32.0936C102.298 32.0936 103.078 31.785 103.729 31.1679C104.379 30.5508 104.705 29.7997 104.705 28.9128C104.705 28.0259 104.379 27.2263 103.729 26.6092C103.078 25.9921 102.296 25.6836 101.386 25.6836Z" fill="white"/>
<path d="M96.8554 5.11426H93.2727C93.4237 5.70227 93.4985 6.2402 93.4985 6.72967C93.4985 8.17385 92.8311 8.89594 91.4996 8.89594C89.7896 8.89594 88.9097 7.63592 88.8599 5.11587H85.0497C85.0746 6.09643 85.224 7.00106 85.498 7.83138C84.3558 7.46792 82.7985 6.86375 80.866 6.79106C79.3337 6.73452 76.684 6.64244 74.3664 8.29662C74.1572 8.44686 73.9497 8.6084 73.7471 8.78771C72.59 9.85227 72.0122 11.2415 72.0122 12.9539C72.0122 12.9636 72.0122 12.9716 72.0122 12.9813C72.0172 14.3496 73.1744 15.4497 74.5822 15.4497H76.2756C76.0747 14.8132 75.9734 14.1525 75.9734 13.4676C75.9734 12.6356 76.1992 11.9636 76.6525 11.4483C77.1057 10.9346 77.7332 10.6777 78.5384 10.6777C79.6192 10.6777 80.4427 11.0574 81.0088 11.815C81.5749 12.5742 81.8572 13.5532 81.8572 14.7518C81.8539 14.7518 81.8522 14.755 81.8489 14.7599C81.8306 14.7631 81.8107 14.7664 81.7941 14.768C78.6962 15.5159 75.5999 17.0877 72.502 19.485C71.979 19.8905 71.6719 20.5027 71.6719 21.1537V22.8984C71.6719 23.7271 72.1666 24.4798 72.9386 24.8288L81.3591 28.6218C80.5307 28.8431 79.8168 29.2114 79.2158 29.7267C78.1599 30.6313 77.632 31.8429 77.632 33.3598C77.632 34.7781 78.1599 35.9234 79.2158 36.7909C80.2717 37.66 81.6181 38.0946 83.2517 38.0946C84.7609 38.0946 85.9612 37.6729 86.8544 36.8281C87.7475 35.9832 88.3568 34.8637 88.6839 33.4696C90.2179 34.5213 91.7636 35.8798 93.3241 37.5437V33.3969C92.0657 32.0271 90.5765 30.8462 88.8549 29.8543C87.9534 29.3358 87.0287 28.9545 86.0824 28.7074V17.981C87.6662 18.0295 88.9362 18.3477 89.8925 18.9357C90.8471 19.5238 91.3253 20.367 91.3253 21.4687C91.3253 23.0599 90.4819 23.8547 88.7984 23.8547C88.5693 23.8547 88.3834 24.0356 88.3834 24.2585V26.9062C88.3834 27.3068 88.7154 27.6347 89.1272 27.6347C89.1305 27.6347 89.1338 27.6347 89.1371 27.6347C91.0729 27.6347 92.6318 27.1146 93.8139 26.0743C94.996 25.0339 95.587 23.5106 95.587 21.5043C95.587 19.4979 94.6623 17.742 92.8145 16.4577C90.9667 15.1734 88.7221 14.5063 86.0807 14.4578C86.0807 14.4336 86.0774 14.411 86.0774 14.3867C86.011 13.1509 85.6872 11.962 85.1095 10.954C86.7282 11.269 88.2755 11.6777 89.4409 12.0169C89.4409 12.0169 89.4426 12.0169 89.4443 12.0169C90.0668 12.2075 90.7525 12.3029 91.4996 12.3077C91.5129 12.3077 91.5261 12.3077 91.5394 12.3077C93.2743 12.3077 94.6324 11.8182 95.6135 10.8393C96.2345 10.2206 96.6578 9.47426 96.8853 8.60032H110.155V10.8393C106.408 11.8134 102.822 13.6469 99.3988 16.3382C98.8808 16.7452 98.5753 17.3559 98.5753 18.0053V20.1699C98.5753 20.8565 98.9157 21.501 99.4884 21.9016L108.754 28.3827C109.642 29.003 110.708 29.3374 111.8 29.3374H114.419V8.60194H118.001V5.11426H96.857M75.6314 21.9824C77.5921 20.3928 79.6674 19.2427 81.8555 18.5319V24.9176L75.6314 21.9808V21.9824ZM83.3264 35.1593C82.6989 35.1593 82.1942 34.9994 81.8173 34.6828C81.4405 34.3646 81.2512 33.9122 81.2512 33.3242C81.2512 32.7362 81.4521 32.2839 81.8555 31.9657C82.2573 31.6474 82.7985 31.4891 83.4775 31.4891C84.1565 31.4891 84.9617 31.6474 85.8167 31.9657C85.6408 34.0948 84.8107 35.1593 83.3264 35.1593ZM110.154 24.7157L102.459 19.1361C104.771 17.3252 107.336 15.9068 110.154 14.8778V24.7141V24.7157Z" fill="white"/>
</g>
<defs>
<clipPath id="clip0_586_11325">
<rect width="118" height="37.5455" fill="white" transform="translate(0 0.550781)"/>
</clipPath>
</defs>
</svg>
